<svg width="111" height="94" viewBox="0 0 111 94" fill="none" xmlns="http://www.w3.org/2000/svg">
<g filter="url(#filter0_dii_1027_3981)">
<path d="M19 27.741H91.6804V57.4234C91.6804 63.5517 86.7125 68.5197 80.5842 68.5197H30.0962C23.968 68.5197 19 63.5517 19 57.4234V27.741Z" fill="#22EB72"/>
</g>
<path d="M59.1743 8.09278C56.7705 6.845 53.9099 6.845 51.5061 8.09278L21.4963 23.6703C19.9626 24.4665 19 26.0507 19 27.7788C19 29.6105 20.0801 31.2699 21.755 32.0114L52.0934 45.4437C54.1611 46.3592 56.5193 46.3592 58.587 45.4437L88.9255 32.0114C90.6003 31.2699 91.6804 29.6105 91.6804 27.7788C91.6804 26.0507 90.7178 24.4665 89.1841 23.6703L59.1743 8.09278Z" fill="url(#paint0_linear_1027_3981)"/>
<path opacity="0.8" d="M34.5347 0C32.0834 0 30.0962 1.98719 30.0962 4.4385V35.7049L52.0934 45.4441C54.1611 46.3596 56.5192 46.3596 58.5869 45.4441L80.5841 35.7049V4.4385C80.5841 1.98719 78.5969 0 76.1456 0H34.5347Z" fill="#75F1BC"/>
<rect x="36.7542" y="7.48975" width="17.754" height="4.99331" rx="1.10962" fill="#FEFEFE"/>
<path opacity="0.9" d="M36.7542 18.031C36.7542 17.4182 37.2509 16.9214 37.8638 16.9214H72.817C73.4298 16.9214 73.9266 17.4182 73.9266 18.031V20.8051C73.9266 21.4179 73.4298 21.9147 72.817 21.9147H37.8638C37.2509 21.9147 36.7542 21.4179 36.7542 20.8051V18.031Z" fill="#FEFEFE"/>
<path opacity="0.8" d="M36.7542 27.4634C36.7542 26.8506 37.2509 26.3538 37.8638 26.3538H65.327C65.9398 26.3538 66.4366 26.8506 66.4366 27.4634V30.2374C66.4366 30.8503 65.9398 31.3471 65.327 31.3471H37.8638C37.2509 31.3471 36.7542 30.8503 36.7542 30.2374V27.4634Z" fill="#FEFEFE"/>
<path opacity="0.6" d="M41.5561 40.7787H57.2822C57.895 40.7787 58.3918 40.2819 58.3918 39.6691V36.895C58.3918 36.2822 57.895 35.7854 57.2822 35.7854H37.8638C37.2509 35.7854 36.7542 36.2822 36.7542 36.895V38.6526L41.5561 40.7787Z" fill="#FEFEFE"/>
<defs>
<filter id="filter0_dii_1027_3981" x="0" y="14.741" width="110.68" height="78.7788" filterUnits="userSpaceOnUse" color-interpolation-filters="sRGB">
<feFlood flood-opacity="0" result="BackgroundImageFix"/>
<feColorMatrix in="SourceAlpha" type="matrix" values="0 0 0 0 0 0 0 0 0 0 0 0 0 0 0 0 0 0 127 0" result="hardAlpha"/>
<feOffset dy="6"/>
<feGaussianBlur stdDeviation="9.5"/>
<feComposite in2="hardAlpha" operator="out"/>
<feColorMatrix type="matrix" values="0 0 0 0 0.847059 0 0 0 0 0.862745 0 0 0 0 0.851451 0 0 0 0.76 0"/>
<feBlend mode="normal" in2="BackgroundImageFix" result="effect1_dropShadow_1027_3981"/>
<feBlend mode="normal" in="SourceGraphic" in2="effect1_dropShadow_1027_3981" result="shape"/>
<feColorMatrix in="SourceAlpha" type="matrix" values="0 0 0 0 0 0 0 0 0 0 0 0 0 0 0 0 0 0 127 0" result="hardAlpha"/>
<feOffset dy="-5.54812"/>
<feGaussianBlur stdDeviation="4.16109"/>
<feComposite in2="hardAlpha" operator="arithmetic" k2="-1" k3="1"/>
<feColorMatrix type="matrix" values="0 0 0 0 0.0751007 0 0 0 0 0.895833 0 0 0 0 0.00373262 0 0 0 0.51 0"/>
<feBlend mode="normal" in2="shape" result="effect2_innerShadow_1027_3981"/>
<feColorMatrix in="SourceAlpha" type="matrix" values="0 0 0 0 0 0 0 0 0 0 0 0 0 0 0 0 0 0 127 0" result="hardAlpha"/>
<feOffset dy="1.10962"/>
<feGaussianBlur stdDeviation="2.63536"/>
<feComposite in2="hardAlpha" operator="arithmetic" k2="-1" k3="1"/>
<feColorMatrix type="matrix" values="0 0 0 0 1 0 0 0 0 1 0 0 0 0 1 0 0 0 0.38 0"/>
<feBlend mode="normal" in2="effect2_innerShadow_1027_3981" result="effect3_innerShadow_1027_3981"/>
</filter>
<linearGradient id="paint0_linear_1027_3981" x1="55.3402" y1="6.10254" x2="55.3402" y2="46.8812" gradientUnits="userSpaceOnUse">
<stop stop-color="#38D693"/>
<stop offset="1" stop-color="#0FB06C"/>
</linearGradient>
</defs>
</svg>
